<?xml version="1.0" encoding="utf-8"?>
<!-- Generator: Adobe Illustrator 27.9.0, SVG Export Plug-In . SVG Version: 6.00 Build 0)  -->
<svg version="1.1" id="Layer_1" xmlns="http://www.w3.org/2000/svg" xmlns:xlink="http://www.w3.org/1999/xlink" x="0px" y="0px"
	 viewBox="0 0 612 792" style="enable-background:new 0 0 612 792;" xml:space="preserve">
<style type="text/css">
	.st0{fill:#010101;}
</style>
<path class="st0" d="M299.9,445.9c-5.9-3.4-7.8-10.7-7.5-17.1c0.5-8.6,4.5-16.6,5.6-25.2c0.5-4-0.5-7.5-3.7-10.1
	c-1.5-1.2-3.1-2.2-4.5-3.5s-2.7-2.9-3.8-4.5c-0.9-1.4-2.7-3.8-2.2-5.6s2.8-2.7,4.2-3.4c3.6-1.8,7.6-2.6,11.5-3.7
	c7.1-2,14.7-5.6,17.2-13.1c1.1-3.2,0.6-6.8-1.3-9.6s-4.9-4.7-8-5.9s-7.5-2.5-10.9-1.4c-3,1-5.1,3.7-6,6.7c-2,7.3,3.9,13.7,9.8,17
	c11.4,6.3,26.6,4.5,36.3-4.1c1.2-1.1,2.3-2.2,3.3-3.5c0.6-0.8,0.6-2.3-0.7-2.5c-17.2-3.4-34.8-4.4-52.2-2.8
	c-4.9,0.4-9.9,1.1-14.8,1.9c-1.2,0.2-1.3,1.8-0.7,2.5c10.4,11.8,24.9,19.9,40.4,22.8c4.4,0.8,8.9,1.2,13.4,1.2l-1.3-0.7
	c1.4,2.2-0.7,4.6-2.2,6c-1.8,1.8-3.7,3.4-4.6,5.9c-1.8,4.7-0.1,10,2.6,14c3.1,4.4,7.3,7.7,10.5,12c3,4.1,5.5,8.9,5.8,14
	s-1.4,10.8-5.5,14.3c-1.5,1.2,0.7,3.4,2.1,2.1c7-6,7.8-16.3,4.5-24.4c-1.8-4.4-4.6-8.3-7.9-11.8c-3.2-3.5-7.2-6.8-8.9-11.4
	c-0.8-2-1.2-4.4-0.7-6.5c0.5-2.3,2-3.8,3.7-5.4s3.2-3.2,3.9-5.5c0.5-1.7,0.4-5.2-1.9-5.5c-1-0.1-2.1,0-3.2,0c-1.2,0-2.4-0.1-3.6-0.2
	c-2.3-0.2-4.6-0.5-6.9-1c-4.5-0.9-8.9-2.2-13.1-4c-9.6-4-18.2-10.1-25-17.8l-0.7,2.5c16.8-2.8,34.1-3.2,51-1.3
	c4.8,0.5,9.6,1.3,14.4,2.2l-0.7-2.5c-7.6,9.5-21.4,13-32.7,8.7c-5.5-2.1-12.6-7.1-12-13.8c0.3-2.7,2-5.6,4.7-6.2
	c1.8-0.4,3.8,0.1,5.6,0.6c1.5,0.4,3.1,0.9,4.5,1.6c2.7,1.4,5.2,3.4,6,6.5c0.9,3.2-0.6,6.5-2.7,8.9c-5.1,5.8-12.8,6.6-19.8,8.9
	c-3.2,1-7.2,2.4-9.5,5.1c-2.7,3.2-0.5,7.1,1.5,10.1s4.6,5.6,7.5,7.7c1.4,1,2.8,2.1,3.5,3.7c0.7,1.8,0.5,3.9,0.2,5.7
	c-1.3,8.1-4.8,15.6-5.4,23.8c-0.5,6.2,0.9,13,5.3,17.6c1,1.1,2.3,2,3.6,2.8C300,449.4,301.5,446.8,299.9,445.9L299.9,445.9
	L299.9,445.9z"/>
</svg>
